<?xml version="1.0" standalone="no"?>
<svg xmlns="http://www.w3.org/2000/svg" viewBox="0 0 153.028 28" width="153.028" height="28"><path fill="#000000" fill-rule="nonzero" d="M1.93 5.72L1.93 5.72Q1.68 5.76 1.50 5.78Q1.33 5.80 1.21 5.80L1.21 5.80Q0.55 5.76 0.27 5.42Q0 5.08 0 4.28L0 4.28Q0 2.70 1.52 2.29L1.52 2.29Q2.87 1.97 4.41 1.83Q5.96 1.68 7.85 1.68L7.85 1.68Q10.39 1.68 12.90 2.17Q15.41 2.66 17.69 3.51Q19.96 4.36 21.91 5.52Q23.87 6.68 25.30 8.04Q26.74 9.39 27.55 10.89Q28.36 12.38 28.36 13.89L28.36 13.89Q28.36 15.41 27.33 16.79Q26.31 18.16 24.57 19.22Q22.83 20.27 20.55 20.90Q18.26 21.52 15.76 21.52L15.76 21.52Q13.77 21.52 11.60 21.15Q9.43 20.78 6.82 19.96L6.82 19.96Q5.61 19.63 5.61 18.48L5.61 18.48Q5.61 18.22 5.72 18.01Q5.84 17.79 5.97 17.60Q6.09 17.40 6.21 17.22Q6.33 17.03 6.33 16.84L6.33 16.84Q6.33 15.72 6.22 14.45Q6.11 13.18 5.93 11.91Q5.74 10.64 5.50 9.48Q5.25 8.32 5 7.42Q4.75 6.52 4.48 5.99Q4.22 5.45 4.00 5.45L4.00 5.45Q3.67 5.45 3.19 5.53Q2.71 5.61 1.93 5.72ZM9.45 5.41L9.45 5.41Q8.89 5.41 8.89 5.80L8.89 5.80Q8.89 5.90 8.95 6.13Q9.00 6.37 9.12 6.88L9.12 6.88Q9.30 7.70 9.45 8.63Q9.61 9.57 9.77 10.73Q9.92 11.89 10.07 13.33Q10.21 14.77 10.37 16.56L10.37 16.56Q10.39 16.86 10.90 17.12Q11.41 17.38 12.25 17.59Q13.09 17.79 14.17 17.92Q15.25 18.05 16.41 18.05L16.41 18.05Q17.93 18.05 19.33 17.69Q20.72 17.32 21.79 16.72Q22.85 16.11 23.49 15.31Q24.12 14.51 24.12 13.65L24.12 13.65Q24.12 12.23 23.00 10.88Q21.88 9.53 19.90 8.43Q17.93 7.32 15.25 6.53Q12.58 5.74 9.45 5.41ZM47.48 2.17L47.48 2.17Q47.48 2.93 46.98 3.59Q46.48 4.26 45.73 4.88Q44.98 5.51 44.10 6.09Q43.22 6.68 42.47 7.29Q41.72 7.89 41.22 8.52Q40.72 9.14 40.72 9.84L40.72 9.84Q40.72 10.43 41.54 10.98Q42.36 11.52 43.91 12.07Q45.45 12.62 47.64 13.19Q49.82 13.77 52.56 14.41L52.56 14.41Q53.93 14.79 53.93 15.80L53.93 15.80Q53.93 16.19 53.74 16.56Q53.55 16.93 53.24 17.22Q52.93 17.50 52.53 17.68Q52.13 17.85 51.72 17.85L51.72 17.85Q50.74 17.85 49.50 17.56Q48.26 17.27 46.93 16.84Q45.61 16.41 44.28 15.89Q42.95 15.37 41.79 14.94Q40.63 14.51 39.74 14.22Q38.85 13.93 38.40 13.93L38.40 13.93Q38.05 13.93 37.72 14.25Q37.40 14.57 37.14 15.14Q36.88 15.70 36.70 16.47Q36.52 17.25 36.45 18.16L36.45 18.16Q36.35 19.20 35.71 19.70Q35.08 20.20 33.96 20.20L33.96 20.20Q32.81 20.20 32.64 19.12L32.64 19.12Q32.34 17.48 31.92 15.78Q31.50 14.08 31.01 12.38Q30.51 10.68 29.93 9.02Q29.36 7.36 28.73 5.84L28.73 5.84Q28.57 5.51 28.51 5.22Q28.44 4.94 28.44 4.65L28.44 4.65Q28.44 4.39 28.59 4.17Q28.75 3.95 29.02 3.77Q29.30 3.59 29.66 3.50Q30.02 3.40 30.41 3.40L30.41 3.40Q31.21 3.40 31.68 3.73Q32.15 4.06 32.64 4.73L32.64 4.73Q32.87 5.04 33.09 5.56Q33.30 6.07 33.50 6.66Q33.69 7.25 33.89 7.84Q34.08 8.44 34.27 8.92Q34.45 9.39 34.64 9.70Q34.82 10 35 10L35 10Q35.16 10 35.26 9.86Q35.37 9.73 35.53 9.45L35.53 9.45Q36.54 7.34 37.75 5.60Q38.96 3.85 40.23 2.61Q41.50 1.37 42.78 0.68Q44.06 0 45.23 0L45.23 0Q45.70 0 46.11 0.17Q46.52 0.33 46.83 0.63Q47.13 0.92 47.30 1.32Q47.48 1.72 47.48 2.17ZM60.16 3.61L60.16 3.61Q59.06 3.61 58.13 4.13Q57.21 4.65 56.51 5.56Q55.82 6.46 55.43 7.70Q55.04 8.93 55.04 10.33L55.04 10.33Q55.04 11.78 55.69 13.00Q56.35 14.22 57.51 15.13Q58.67 16.04 60.24 16.54Q61.82 17.05 63.67 17.05L63.67 17.05Q65.02 17.05 66.22 16.81Q67.42 16.56 68.32 16.15Q69.22 15.74 69.75 15.19Q70.27 14.63 70.27 14.00L70.27 14.00Q70.27 13.52 70.10 13.19Q69.92 12.87 69.70 12.61Q69.47 12.34 69.30 12.08Q69.12 11.82 69.12 11.41L69.12 11.41Q69.12 11.02 69.32 10.66Q69.51 10.31 69.85 10.04Q70.20 9.77 70.63 9.61Q71.07 9.45 71.54 9.45L71.54 9.45Q72.11 9.45 72.61 9.75Q73.11 10.04 73.47 10.56Q73.83 11.07 74.03 11.77Q74.24 12.46 74.24 13.24L74.24 13.24Q74.24 14.82 73.40 16.18Q72.56 17.54 71.07 18.52Q69.59 19.49 67.56 20.05Q65.53 20.61 63.14 20.61L63.14 20.61Q60.51 20.61 58.28 19.89Q56.05 19.18 54.44 17.91Q52.83 16.64 51.93 14.90Q51.04 13.16 51.04 11.09L51.04 11.09Q51.04 8.83 51.83 6.82Q52.62 4.80 53.98 3.30Q55.35 1.80 57.18 0.92Q59.00 0.04 61.07 0.04L61.07 0.04Q61.99 0.04 62.76 0.24Q63.54 0.45 64.10 0.82Q64.67 1.19 64.99 1.69Q65.31 2.19 65.31 2.77L65.31 2.77Q65.31 3.24 65.11 3.66Q64.90 4.08 64.57 4.40Q64.24 4.73 63.80 4.92Q63.36 5.12 62.87 5.12L62.87 5.12Q62.36 5.12 62.06 4.88Q61.76 4.65 61.50 4.37Q61.25 4.08 60.96 3.85Q60.66 3.61 60.16 3.61ZM69.59 3.93L69.59 3.93Q68.91 3.42 68.91 2.71L68.91 2.71Q68.91 2.44 69.00 2.18Q69.10 1.91 69.36 1.64L69.36 1.64L69.92 1.00Q70.43 0.37 71.11 0.37L71.11 0.37Q71.35 0.37 71.61 0.46Q71.88 0.55 72.15 0.76L72.15 0.76Q74.88 2.81 77.41 5.01Q79.94 7.21 82.30 9.80L82.30 9.80Q82.68 10.16 82.95 10.16L82.95 10.16Q83.48 10.16 83.59 9.45L83.59 9.45L85.31 2.60Q85.61 1.45 86.50 1.45L86.50 1.45Q86.70 1.45 86.92 1.50Q87.15 1.56 87.38 1.72L87.38 1.72L88.07 2.09Q89.02 2.62 89.02 3.52L89.02 3.52Q89.02 3.81 88.91 4.16L88.91 4.16Q88.24 6.60 87.57 9.31Q86.89 12.01 86.19 14.85Q85.49 17.70 84.75 20.61Q84.00 23.52 83.22 26.37L83.22 26.37Q82.91 27.56 81.88 27.56L81.88 27.56Q81.58 27.56 81.23 27.44L81.23 27.44L80.59 27.25Q79.98 27.09 79.71 26.74Q79.43 26.39 79.43 25.88L79.43 25.88Q79.43 25.76 79.44 25.61Q79.45 25.45 79.51 25.29L79.51 25.29Q80.14 22.97 80.74 20.68Q81.35 18.40 81.91 16.09L81.91 16.09Q81.95 15.96 81.97 15.86Q81.99 15.76 81.99 15.64L81.99 15.64Q81.99 15.41 81.88 15.20Q81.78 14.98 81.60 14.77L81.60 14.77Q78.85 11.72 75.85 9.04Q72.85 6.37 69.59 3.93ZM100.39 3.61L100.39 3.61Q99.30 3.61 98.37 4.13Q97.44 4.65 96.75 5.56Q96.05 6.46 95.66 7.70Q95.27 8.93 95.27 10.33L95.27 10.33Q95.27 11.78 95.93 13.00Q96.58 14.22 97.74 15.13Q98.91 16.04 100.48 16.54Q102.05 17.05 103.91 17.05L103.91 17.05Q105.25 17.05 106.46 16.81Q107.66 16.56 108.55 16.15Q109.45 15.74 109.98 15.19Q110.51 14.63 110.51 14.00L110.51 14.00Q110.51 13.52 110.33 13.19Q110.16 12.87 109.93 12.61Q109.71 12.34 109.53 12.08Q109.36 11.82 109.36 11.41L109.36 11.41Q109.36 11.02 109.55 10.66Q109.75 10.31 110.09 10.04Q110.43 9.77 110.87 9.61Q111.31 9.45 111.78 9.45L111.78 9.45Q112.34 9.45 112.84 9.75Q113.34 10.04 113.70 10.56Q114.06 11.07 114.27 11.77Q114.47 12.46 114.47 13.24L114.47 13.24Q114.47 14.82 113.63 16.18Q112.79 17.54 111.31 18.52Q109.82 19.49 107.79 20.05Q105.76 20.61 103.38 20.61L103.38 20.61Q100.74 20.61 98.52 19.89Q96.29 19.18 94.68 17.91Q93.07 16.64 92.17 14.90Q91.27 13.16 91.27 11.09L91.27 11.09Q91.27 8.83 92.06 6.82Q92.85 4.80 94.22 3.30Q95.59 1.80 97.41 0.92Q99.24 0.04 101.31 0.04L101.31 0.04Q102.23 0.04 103.00 0.24Q103.77 0.45 104.34 0.82Q104.90 1.19 105.22 1.69Q105.55 2.19 105.55 2.77L105.55 2.77Q105.55 3.24 105.34 3.66Q105.14 4.08 104.80 4.40Q104.47 4.73 104.03 4.92Q103.59 5.12 103.11 5.12L103.11 5.12Q102.60 5.12 102.29 4.88Q101.99 4.65 101.74 4.37Q101.48 4.08 101.19 3.85Q100.90 3.61 100.39 3.61ZM118.91 21.97L118.91 21.97Q118.34 22.07 117.89 22.20Q117.44 22.32 116.78 22.32L116.78 22.32Q116.05 22.32 115.66 21.91Q115.27 21.50 115.27 21.00L115.27 21.00Q115.27 20.59 115.41 19.93Q115.55 19.28 115.55 18.61L115.55 18.61Q115.41 16.09 115.19 13.62Q114.96 11.15 114.75 9.10Q114.53 7.05 114.38 5.60Q114.22 4.14 114.22 3.61L114.22 3.61Q114.22 3.26 114.39 2.96Q114.57 2.66 114.88 2.42Q115.20 2.19 115.62 2.06Q116.04 1.93 116.50 1.93L116.50 1.93Q117.42 1.93 117.85 2.22Q118.28 2.50 118.38 3.13L118.38 3.13Q118.93 7.32 119.17 10.83Q119.41 14.34 119.51 17.40L119.51 17.40Q119.51 17.85 119.76 18.09Q120 18.32 120.39 18.32L120.39 18.32Q121.17 18.32 121.97 18.23Q122.77 18.14 123.57 18.05Q124.38 17.95 125.17 17.86Q125.96 17.77 126.70 17.77L126.70 17.77Q127.19 17.77 127.49 17.89Q127.79 18.01 127.96 18.20Q128.13 18.40 128.17 18.64Q128.22 18.89 128.22 19.12L128.22 19.12Q128.22 19.49 128.14 19.86Q128.07 20.23 127.87 20.54Q127.68 20.84 127.34 21.04Q127.01 21.25 126.50 21.29L126.50 21.29Q124.10 21.52 122.12 21.64Q120.14 21.76 118.91 21.97ZM130 15.84L130 15.84Q129.94 15.84 129.81 15.86Q129.69 15.88 129.54 15.90Q129.39 15.92 129.26 15.94Q129.12 15.96 129.04 15.96L129.04 15.96Q128.50 15.96 128.09 15.50Q127.68 15.04 127.68 14.28L127.68 14.28Q127.68 13.77 128.01 13.30Q128.34 12.83 129.04 12.52L129.04 12.52Q129.26 12.42 129.38 12.29Q129.51 12.17 129.51 11.93L129.51 11.93Q129.51 11.31 129.48 10.60Q129.45 9.88 129.39 8.93L129.39 8.93Q129.38 8.73 129.27 8.55Q129.16 8.38 129.03 8.15Q128.91 7.93 128.81 7.66Q128.71 7.38 128.71 6.97L128.71 6.97Q128.71 6.60 128.82 6.12Q128.93 5.64 129.27 5.22Q129.61 4.80 130.22 4.52Q130.84 4.24 131.84 4.24L131.84 4.24Q132.25 4.24 132.52 4.32Q132.79 4.39 133.00 4.50Q133.20 4.61 133.37 4.69Q133.54 4.77 133.71 4.77L133.71 4.77Q134.02 4.77 134.96 4.65Q135.90 4.53 137.22 4.32Q138.54 4.10 140.13 3.83Q141.72 3.55 143.36 3.23Q145 2.91 146.56 2.58Q148.13 2.25 149.39 1.93L149.39 1.93Q149.79 1.84 150.08 1.84L150.08 1.84Q150.49 1.84 150.73 2.02Q150.98 2.21 151.09 2.48Q151.21 2.75 151.24 3.10Q151.27 3.44 151.27 3.73L151.27 3.73Q151.27 4.24 150.93 4.68Q150.59 5.12 149.80 5.37L149.80 5.37Q147.87 5.94 145.91 6.36Q143.95 6.78 141.95 7.12Q139.96 7.46 137.95 7.73Q135.94 8.01 133.95 8.28L133.95 8.28Q133.67 8.32 133.54 8.49Q133.40 8.65 133.40 8.93L133.40 8.93L133.40 9.73Q133.40 10.06 133.42 10.41Q133.44 10.76 133.51 11.05Q133.57 11.35 133.69 11.53Q133.81 11.72 134.00 11.72L134.00 11.72Q134.47 11.72 135.46 11.52Q136.45 11.33 137.69 11.04Q138.93 10.76 140.28 10.42Q141.64 10.08 142.85 9.79Q144.06 9.51 144.98 9.32Q145.90 9.12 146.27 9.12L146.27 9.12Q146.82 9.12 147.10 9.52Q147.38 9.92 147.48 10.53L147.48 10.53Q147.48 10.63 147.50 10.70Q147.52 10.78 147.52 10.88L147.52 10.88Q147.52 11.45 147.18 11.92Q146.84 12.40 145.96 12.64L145.96 12.64Q145.72 12.71 145.02 12.88Q144.32 13.05 143.36 13.27Q142.40 13.50 141.29 13.75Q140.18 14.00 139.10 14.25Q138.03 14.49 137.10 14.72Q136.17 14.94 135.59 15.08L135.59 15.08Q135.06 15.21 134.95 15.29Q134.84 15.37 134.84 15.49L134.84 15.49Q134.88 15.92 135.28 16.29Q135.68 16.66 136.30 16.97Q136.91 17.29 137.69 17.54Q138.46 17.79 139.29 17.96Q140.12 18.13 140.92 18.22Q141.72 18.32 142.40 18.32L142.40 18.32Q142.70 18.32 143.24 18.32Q143.79 18.32 144.44 18.29Q145.10 18.26 145.79 18.20Q146.48 18.14 147.04 18.04Q147.60 17.93 147.96 17.76Q148.32 17.60 148.32 17.36L148.32 17.36Q148.32 17.15 148.17 16.91Q148.03 16.68 148.03 16.41L148.03 16.41Q148.03 16.02 148.24 15.63Q148.46 15.25 148.80 14.95Q149.14 14.65 149.58 14.46Q150.02 14.28 150.47 14.28L150.47 14.28Q151.04 14.28 151.50 14.50Q151.97 14.73 152.31 15.09Q152.66 15.45 152.84 15.92Q153.03 16.39 153.03 16.88L153.03 16.88Q153.03 18.16 152.08 19.10Q151.13 20.04 149.61 20.65Q148.09 21.27 146.17 21.57Q144.26 21.88 142.32 21.88L142.32 21.88Q140.06 21.88 138.18 21.57Q136.31 21.27 134.82 20.61Q133.34 19.94 132.27 18.88Q131.19 17.81 130.51 16.29L130.51 16.29Q130.27 15.84 130 15.84Z" transform="translate(0 0) scale(1)"></path></svg>